<?xml version="1.0" encoding="utf-8"?>
<!-- Generator: Adobe Illustrator 26.0.0, SVG Export Plug-In . SVG Version: 6.00 Build 0)  -->
<svg version="1.1" id="Camada_1" xmlns="http://www.w3.org/2000/svg" xmlns:xlink="http://www.w3.org/1999/xlink" x="0px" y="0px"
	 viewBox="0 0 131.06 30.81" style="enable-background:new 0 0 131.06 30.81;" xml:space="preserve">
<style type="text/css">
	.st0{fill-rule:evenodd;clip-rule:evenodd;fill:#56AF31;}
	.st1{fill:#FFFFFF;}
</style>
<path class="st0" d="M23.46,5.93H11.97V0.93h16.36V17.7h-4.87V5.93z"/>
<path class="st0" d="M14.48,15.86c-0.74-0.51-1.62-0.78-2.51-0.78v-4.99c1.86,0,3.68,0.56,5.22,1.62c1.55,1.06,2.75,2.56,3.46,4.32
	c0.71,1.76,0.9,3.7,0.53,5.56c-0.36,1.87-1.26,3.58-2.57,4.93s-2.99,2.26-4.81,2.64c-1.82,0.37-3.71,0.18-5.43-0.55
	c-1.72-0.73-3.19-1.96-4.22-3.55c-1.03-1.58-1.58-3.45-1.58-5.35h4.87c0,0.92,0.27,1.81,0.76,2.58c0.5,0.76,1.2,1.36,2.03,1.71
	c0.83,0.35,1.74,0.44,2.62,0.26c0.88-0.18,1.68-0.62,2.32-1.27s1.06-1.47,1.24-2.37c0.17-0.9,0.09-1.83-0.26-2.68
	C15.81,17.1,15.23,16.37,14.48,15.86z"/>
<path class="st1" d="M38.18,23.48c-0.5,0-0.89-0.14-1.18-0.41c-0.27-0.29-0.41-0.7-0.41-1.22V8c0-0.53,0.14-0.93,0.41-1.2
	c0.29-0.29,0.7-0.43,1.22-0.43h8.38c0.42,0,0.73,0.1,0.94,0.31c0.21,0.21,0.31,0.5,0.31,0.89c0,0.4-0.1,0.71-0.31,0.94
	c-0.21,0.21-0.52,0.31-0.94,0.31h-6.94v4.78h6.43c0.4,0,0.7,0.1,0.91,0.31c0.22,0.21,0.34,0.5,0.34,0.89c0,0.4-0.11,0.71-0.34,0.94
	c-0.21,0.21-0.51,0.31-0.91,0.31h-6.43v5.81C39.67,22.93,39.17,23.48,38.18,23.48z M52.23,23.45c-0.48,0-0.85-0.14-1.1-0.43
	s-0.38-0.69-0.38-1.2v-8.81c0-0.53,0.13-0.93,0.38-1.2c0.26-0.29,0.62-0.43,1.1-0.43s0.85,0.14,1.1,0.43
	c0.27,0.27,0.41,0.67,0.41,1.2v8.81c0,0.51-0.13,0.91-0.38,1.2S52.73,23.45,52.23,23.45z M52.23,9.15c-0.56,0-1-0.14-1.32-0.41
	c-0.3-0.29-0.46-0.68-0.46-1.18c0-0.51,0.15-0.9,0.46-1.18c0.32-0.27,0.76-0.41,1.32-0.41c0.58,0,1.02,0.14,1.32,0.41
	c0.3,0.27,0.46,0.66,0.46,1.18c0,0.5-0.15,0.89-0.46,1.18C53.25,9.01,52.81,9.15,52.23,9.15z M58.35,23.48
	c-0.48,0-0.85-0.13-1.1-0.38c-0.26-0.27-0.38-0.66-0.38-1.15v-9.07c0-0.5,0.13-0.87,0.38-1.13c0.26-0.26,0.62-0.38,1.08-0.38
	c0.46,0,0.82,0.13,1.08,0.38c0.26,0.26,0.38,0.63,0.38,1.13v1.63l-0.26-0.6c0.35-0.85,0.9-1.49,1.63-1.92
	c0.75-0.45,1.6-0.67,2.54-0.67c0.94,0,1.72,0.18,2.33,0.53c0.61,0.35,1.06,0.89,1.37,1.61c0.3,0.7,0.46,1.6,0.46,2.69v5.81
	c0,0.5-0.13,0.88-0.38,1.15c-0.26,0.26-0.62,0.38-1.1,0.38s-0.86-0.13-1.13-0.38c-0.26-0.27-0.38-0.66-0.38-1.15v-5.66
	c0-0.91-0.18-1.58-0.53-1.99c-0.34-0.42-0.86-0.62-1.58-0.62c-0.88,0-1.58,0.28-2.11,0.84c-0.51,0.54-0.77,1.27-0.77,2.18v5.26
	C59.86,22.96,59.36,23.48,58.35,23.48z M76.8,23.48c-0.5,0-0.88-0.14-1.15-0.41c-0.26-0.29-0.38-0.68-0.38-1.18V8.93h-4.68
	c-0.42,0-0.74-0.11-0.98-0.34c-0.22-0.24-0.34-0.56-0.34-0.96c0-0.42,0.11-0.73,0.34-0.94c0.24-0.22,0.57-0.34,0.98-0.34h12.43
	c0.42,0,0.74,0.11,0.96,0.34c0.24,0.21,0.36,0.52,0.36,0.94c0,0.4-0.12,0.72-0.36,0.96c-0.22,0.22-0.54,0.34-0.96,0.34h-4.68v12.96
	c0,0.5-0.13,0.89-0.38,1.18C77.7,23.34,77.32,23.48,76.8,23.48z M85.47,23.48c-0.5,0-0.88-0.13-1.15-0.38
	c-0.26-0.27-0.38-0.66-0.38-1.15v-9.07c0-0.5,0.13-0.87,0.38-1.13c0.26-0.26,0.62-0.38,1.08-0.38c0.46,0,0.82,0.13,1.08,0.38
	c0.26,0.26,0.38,0.63,0.38,1.13v1.51h-0.24c0.22-0.96,0.66-1.69,1.32-2.18c0.66-0.5,1.53-0.79,2.62-0.89
	c0.34-0.03,0.6,0.06,0.79,0.26c0.21,0.19,0.33,0.5,0.36,0.91c0.03,0.4-0.06,0.73-0.29,0.98c-0.21,0.24-0.53,0.38-0.96,0.43
	l-0.53,0.05c-0.98,0.1-1.71,0.4-2.21,0.91c-0.5,0.5-0.74,1.2-0.74,2.11v4.97c0,0.5-0.13,0.88-0.38,1.15
	C86.34,23.35,85.96,23.48,85.47,23.48z M97.08,23.52c-0.85,0-1.61-0.16-2.28-0.48c-0.66-0.34-1.18-0.78-1.56-1.34
	c-0.37-0.56-0.55-1.19-0.55-1.9c0-0.86,0.22-1.54,0.67-2.04c0.45-0.51,1.18-0.88,2.18-1.1c1.01-0.22,2.36-0.34,4.06-0.34h1.2v1.73
	h-1.18c-0.99,0-1.78,0.05-2.38,0.14c-0.59,0.1-1.02,0.26-1.27,0.5c-0.24,0.22-0.36,0.54-0.36,0.96c0,0.53,0.18,0.96,0.55,1.3
	c0.37,0.34,0.88,0.5,1.54,0.5c0.53,0,0.99-0.12,1.39-0.36c0.42-0.26,0.74-0.6,0.98-1.03s0.36-0.93,0.36-1.49v-2.76
	c0-0.8-0.18-1.38-0.53-1.73s-0.94-0.53-1.78-0.53c-0.46,0-0.97,0.06-1.51,0.17c-0.53,0.11-1.09,0.3-1.68,0.58
	c-0.3,0.14-0.58,0.18-0.82,0.12c-0.22-0.06-0.4-0.19-0.53-0.38c-0.13-0.21-0.19-0.43-0.19-0.67s0.06-0.47,0.19-0.7
	c0.13-0.24,0.34-0.42,0.65-0.53c0.74-0.3,1.44-0.52,2.11-0.65c0.69-0.13,1.31-0.19,1.87-0.19c1.15,0,2.1,0.18,2.83,0.53
	c0.75,0.35,1.31,0.89,1.68,1.61c0.37,0.7,0.55,1.62,0.55,2.74v5.76c0,0.5-0.12,0.88-0.36,1.15c-0.24,0.26-0.58,0.38-1.03,0.38
	c-0.45,0-0.8-0.13-1.06-0.38c-0.24-0.27-0.36-0.66-0.36-1.15v-1.15h0.19c-0.11,0.56-0.34,1.05-0.67,1.46
	c-0.32,0.4-0.73,0.71-1.22,0.94C98.28,23.41,97.72,23.52,97.08,23.52z M111.76,23.52c-1.23,0-2.3-0.25-3.22-0.74
	c-0.91-0.51-1.62-1.23-2.11-2.16s-0.74-2.02-0.74-3.26c0-0.94,0.14-1.78,0.41-2.52c0.29-0.75,0.7-1.38,1.22-1.9
	c0.53-0.53,1.17-0.93,1.92-1.2c0.75-0.29,1.59-0.43,2.52-0.43c0.53,0,1.1,0.07,1.7,0.22c0.62,0.14,1.21,0.38,1.75,0.72
	c0.26,0.16,0.42,0.35,0.5,0.58s0.1,0.46,0.05,0.7c-0.05,0.22-0.15,0.42-0.31,0.6c-0.14,0.16-0.33,0.26-0.55,0.31
	c-0.22,0.03-0.47-0.02-0.74-0.17c-0.35-0.21-0.71-0.36-1.08-0.46c-0.37-0.11-0.72-0.17-1.06-0.17c-0.53,0-0.99,0.09-1.39,0.26
	c-0.4,0.16-0.74,0.4-1.03,0.72c-0.27,0.3-0.48,0.69-0.62,1.15c-0.14,0.46-0.22,1-0.22,1.61c0,1.18,0.28,2.12,0.84,2.81
	c0.58,0.67,1.38,1.01,2.42,1.01c0.34,0,0.68-0.05,1.03-0.14c0.37-0.1,0.74-0.25,1.1-0.46c0.27-0.14,0.51-0.19,0.72-0.14
	c0.22,0.05,0.41,0.16,0.55,0.34c0.14,0.16,0.23,0.36,0.26,0.6c0.03,0.22,0,0.45-0.1,0.67c-0.08,0.22-0.24,0.41-0.48,0.55
	c-0.53,0.32-1.09,0.55-1.68,0.7C112.85,23.45,112.29,23.52,111.76,23.52z M119.15,23.48c-0.48,0-0.85-0.13-1.1-0.38
	c-0.26-0.27-0.38-0.66-0.38-1.15V7.68c0-0.5,0.13-0.87,0.38-1.13s0.62-0.38,1.1-0.38c0.48,0,0.85,0.13,1.1,0.38
	c0.27,0.26,0.41,0.63,0.41,1.13v8.86h0.05l3.96-4.18c0.32-0.32,0.6-0.57,0.84-0.74c0.24-0.18,0.57-0.26,0.98-0.26
	s0.73,0.11,0.94,0.34c0.22,0.21,0.34,0.46,0.34,0.77s-0.14,0.61-0.43,0.91l-4.18,4.42v-1.25l4.58,4.94c0.29,0.3,0.42,0.62,0.38,0.94
	c-0.02,0.3-0.14,0.56-0.38,0.77c-0.24,0.19-0.54,0.29-0.91,0.29c-0.45,0-0.81-0.09-1.08-0.26c-0.26-0.18-0.54-0.44-0.86-0.79
	l-4.18-4.37h-0.05v3.89C120.66,22.96,120.15,23.48,119.15,23.48z"/>
</svg>
